<?xml version="1.0" encoding="UTF-8"?>
<svg xmlns="http://www.w3.org/2000/svg" viewBox="0 0 128 128" width="128" height="128">
  <rect width="128" height="128" rx="24" ry="24" fill="#006493"/>
  <rect x="20" y="20" width="36" height="36" rx="4" fill="none" stroke="#ffffff" stroke-width="6"/>
  <rect x="72" y="20" width="36" height="36" rx="4" fill="none" stroke="#ffffff" stroke-width="6"/>
  <rect x="20" y="72" width="36" height="36" rx="4" fill="none" stroke="#ffffff" stroke-width="6"/>
  <rect x="28" y="28" width="20" height="20" rx="2" fill="#ffffff"/>
  <rect x="80" y="28" width="20" height="20" rx="2" fill="#ffffff"/>
  <rect x="28" y="80" width="20" height="20" rx="2" fill="#ffffff"/>
  <rect x="72" y="72" width="8" height="8" fill="#ffffff"/>
  <rect x="88" y="72" width="8" height="8" fill="#ffffff"/>
  <rect x="104" y="72" width="8" height="8" fill="#ffffff"/>
  <rect x="72" y="88" width="8" height="8" fill="#ffffff"/>
  <rect x="96" y="88" width="16" height="8" fill="#ffffff"/>
  <rect x="72" y="104" width="8" height="8" fill="#ffffff"/>
  <rect x="88" y="96" width="8" height="16" fill="#ffffff"/>
  <rect x="104" y="104" width="8" height="8" fill="#ffffff"/>
</svg>
